<?plantuml 1.2026.2?><svg xmlns="http://www.w3.org/2000/svg" xmlns:xlink="http://www.w3.org/1999/xlink" contentStyleType="text/css" data-diagram-type="DESCRIPTION" height="1218px" preserveAspectRatio="none" style="width:807px;height:1218px;background:#FFFFFF;" version="1.1" viewBox="0 0 807 1218" width="807px" zoomAndPan="magnify"><title>Casos de Uso - Building Book</title><defs/><g><g class="title" data-source-line="3"><text fill="#000000" font-family="sans-serif" font-size="14" font-weight="bold" lengthAdjust="spacing" textLength="199.6672" x="297.038" y="24.9659">Casos de Uso - Building Book</text></g><!--cluster CLI--><g class="cluster" data-qualified-name="CLI" data-source-line="9" id="ent0005"><path d="M122.42,504.6699 L145.6799,504.6699 A3.75,3.75 0 0 1 148.1799,507.1699 L155.1799,529.7378 L398.74,529.7378 A2.5,2.5 0 0 1 401.24,532.2378 L401.24,1163.1699 A2.5,2.5 0 0 1 398.74,1165.6699 L122.42,1165.6699 A2.5,2.5 0 0 1 119.92,1163.1699 L119.92,507.1699 A2.5,2.5 0 0 1 122.42,504.6699" fill="none" style="stroke:#000000;stroke-width:1.5;"/><line style="stroke:#000000;stroke-width:1.5;" x1="119.92" x2="155.1799" y1="529.7378" y2="529.7378"/><text fill="#000000" font-family="sans-serif" font-size="14" font-weight="bold" lengthAdjust="spacing" textLength="22.2599" x="123.92" y="521.6358">CLI</text></g><!--cluster Verification--><g class="cluster" data-qualified-name="Verification" data-source-line="20" id="ent0014"><path d="M503.9,518.6699 L586.1277,518.6699 A3.75,3.75 0 0 1 588.6277,521.1699 L595.6277,543.7378 L742.09,543.7378 A2.5,2.5 0 0 1 744.59,546.2378 L744.59,778.1699 A2.5,2.5 0 0 1 742.09,780.6699 L503.9,780.6699 A2.5,2.5 0 0 1 501.4,778.1699 L501.4,521.1699 A2.5,2.5 0 0 1 503.9,518.6699" fill="none" style="stroke:#000000;stroke-width:1.5;"/><line style="stroke:#000000;stroke-width:1.5;" x1="501.4" x2="595.6277" y1="543.7378" y2="543.7378"/><text fill="#000000" font-family="sans-serif" font-size="14" font-weight="bold" lengthAdjust="spacing" textLength="81.2277" x="505.4" y="535.6358">Verification</text></g><!--cluster Documentation--><g class="cluster" data-qualified-name="Documentation" data-source-line="26" id="ent0018"><path d="M128.3,46.6699 L238.3036,46.6699 A3.75,3.75 0 0 1 240.8036,49.1699 L247.8036,71.7378 L392.86,71.7378 A2.5,2.5 0 0 1 395.36,74.2378 L395.36,478.1699 A2.5,2.5 0 0 1 392.86,480.6699 L128.3,480.6699 A2.5,2.5 0 0 1 125.8,478.1699 L125.8,49.1699 A2.5,2.5 0 0 1 128.3,46.6699" fill="none" style="stroke:#000000;stroke-width:1.5;"/><line style="stroke:#000000;stroke-width:1.5;" x1="125.8" x2="247.8036" y1="71.7378" y2="71.7378"/><text fill="#000000" font-family="sans-serif" font-size="14" font-weight="bold" lengthAdjust="spacing" textLength="109.0036" x="129.8" y="63.6358">Documentation</text></g><!--entity uc001--><g class="entity" data-qualified-name="CLI.uc001" data-source-line="10" id="ent0006"><ellipse cx="260.5803" cy="565.668" fill="#F1F1F1" rx="104.5903" ry="23.3181" style="stroke:#181818;stroke-width:0.5;"/><text fill="#000000" font-family="sans-serif" font-size="14" lengthAdjust="spacing" textLength="179.4233" x="170.8687" y="571.7019">UC-001: Inicializar proyecto</text></g><!--entity uc002--><g class="entity" data-qualified-name="CLI.uc002" data-source-line="11" id="ent0007"><ellipse cx="260.5804" cy="725.672" fill="#F1F1F1" rx="115.0604" ry="25.4121" style="stroke:#181818;stroke-width:0.5;"/><text fill="#000000" font-family="sans-serif" font-size="14" lengthAdjust="spacing" textLength="202.8312" x="159.1648" y="731.7059">UC-002: Reconstruir estructura</text></g><!--entity uc003--><g class="entity" data-qualified-name="CLI.uc003" data-source-line="12" id="ent0008"><ellipse cx="260.5768" cy="809.6693" fill="#F1F1F1" rx="106.9468" ry="23.7894" style="stroke:#181818;stroke-width:0.5;"/><text fill="#000000" font-family="sans-serif" font-size="14" lengthAdjust="spacing" textLength="184.7433" x="168.2051" y="815.7032">UC-003: Iniciar servidor web</text></g><!--entity uc004--><g class="entity" data-qualified-name="CLI.uc004" data-source-line="13" id="ent0009"><ellipse cx="260.581" cy="889.6721" fill="#F1F1F1" rx="92.161" ry="20.8322" style="stroke:#181818;stroke-width:0.5;"/><text fill="#000000" font-family="sans-serif" font-size="14" lengthAdjust="spacing" textLength="150.6954" x="185.2333" y="895.7061">UC-004: Ver diagramas</text></g><!--entity uc005--><g class="entity" data-qualified-name="CLI.uc005" data-source-line="14" id="ent0010"><ellipse cx="260.5769" cy="965.6693" fill="#F1F1F1" rx="86.9969" ry="19.7994" style="stroke:#181818;stroke-width:0.5;"/><text fill="#000000" font-family="sans-serif" font-size="14" lengthAdjust="spacing" textLength="138.3195" x="191.4172" y="971.7032">UC-005: Listar planes</text></g><!--entity uc006--><g class="entity" data-qualified-name="CLI.uc006" data-source-line="15" id="ent0011"><ellipse cx="260.581" cy="1040.6661" fill="#F1F1F1" rx="88.281" ry="20.0562" style="stroke:#181818;stroke-width:0.5;"/><text fill="#000000" font-family="sans-serif" font-size="14" lengthAdjust="spacing" textLength="141.4275" x="189.8672" y="1046.7">UC-006: Aprobar plan</text></g><!--entity uc007--><g class="entity" data-qualified-name="CLI.uc007" data-source-line="16" id="ent0012"><ellipse cx="260.5811" cy="644.6661" fill="#F1F1F1" rx="90.7811" ry="20.5562" style="stroke:#181818;stroke-width:0.5;"/><text fill="#000000" font-family="sans-serif" font-size="14" lengthAdjust="spacing" textLength="147.4194" x="186.8714" y="650.7001">UC-007: Rechazar plan</text></g><!--entity uc008--><g class="entity" data-qualified-name="CLI.uc008" data-source-line="17" id="ent0013"><ellipse cx="260.5843" cy="1122.6728" fill="#F1F1F1" rx="124.6643" ry="27.3329" style="stroke:#181818;stroke-width:0.5;"/><text fill="#000000" font-family="sans-serif" font-size="14" lengthAdjust="spacing" textLength="223.8731" x="148.6477" y="1128.7067">UC-008: Ver progreso de actividad</text></g><!--entity uc010--><g class="entity" data-qualified-name="Verification.uc010" data-source-line="21" id="ent0015"><ellipse cx="622.9972" cy="741.6713" fill="#F1F1F1" rx="105.4072" ry="23.4814" style="stroke:#181818;stroke-width:0.5;"/><text fill="#000000" font-family="sans-serif" font-size="14" lengthAdjust="spacing" textLength="181.2713" x="532.3615" y="747.7053">UC-010: Verificar estructura</text></g><!--entity uc011--><g class="entity" data-qualified-name="Verification.uc011" data-source-line="22" id="ent0016"><ellipse cx="623.0031" cy="659.6685" fill="#F1F1F1" rx="105.5931" ry="23.5186" style="stroke:#181818;stroke-width:0.5;"/><text fill="#000000" font-family="sans-serif" font-size="14" lengthAdjust="spacing" textLength="181.6913" x="532.1574" y="665.7025">UC-011: Verificar comandos</text></g><!--entity uc012--><g class="entity" data-qualified-name="Verification.uc012" data-source-line="23" id="ent0017"><ellipse cx="622.999" cy="578.6657" fill="#F1F1F1" rx="98.029" ry="22.0058" style="stroke:#181818;stroke-width:0.5;"/><text fill="#000000" font-family="sans-serif" font-size="14" lengthAdjust="spacing" textLength="164.4154" x="540.7913" y="584.6997">UC-012: Verificar estados</text></g><!--entity uc020--><g class="entity" data-qualified-name="Documentation.uc020" data-source-line="27" id="ent0019"><ellipse cx="260.5771" cy="439.6693" fill="#F1F1F1" rx="113.3971" ry="25.0794" style="stroke:#181818;stroke-width:0.5;"/><text fill="#000000" font-family="sans-serif" font-size="14" lengthAdjust="spacing" textLength="199.1492" x="161.0025" y="445.7033">UC-020: Escribir especificaci&#243;n</text></g><!--entity uc021--><g class="entity" data-qualified-name="Documentation.uc021" data-source-line="28" id="ent0020"><ellipse cx="260.5834" cy="356.6726" fill="#F1F1F1" rx="104.2134" ry="23.2427" style="stroke:#181818;stroke-width:0.5;"/><text fill="#000000" font-family="sans-serif" font-size="14" lengthAdjust="spacing" textLength="178.5693" x="171.2988" y="362.7065">UC-021: Crear diagrama C1</text></g><!--entity uc022--><g class="entity" data-qualified-name="Documentation.uc022" data-source-line="29" id="ent0021"><ellipse cx="260.5834" cy="275.6726" fill="#F1F1F1" rx="104.2134" ry="23.2427" style="stroke:#181818;stroke-width:0.5;"/><text fill="#000000" font-family="sans-serif" font-size="14" lengthAdjust="spacing" textLength="178.5693" x="171.2988" y="281.7065">UC-022: Crear diagrama C2</text></g><!--entity uc023--><g class="entity" data-qualified-name="Documentation.uc023" data-source-line="30" id="ent0022"><ellipse cx="260.5834" cy="194.6726" fill="#F1F1F1" rx="104.2134" ry="23.2427" style="stroke:#181818;stroke-width:0.5;"/><text fill="#000000" font-family="sans-serif" font-size="14" lengthAdjust="spacing" textLength="178.5693" x="171.2988" y="200.7065">UC-023: Crear diagrama C3</text></g><!--entity uc024--><g class="entity" data-qualified-name="Documentation.uc024" data-source-line="31" id="ent0023"><ellipse cx="260.5795" cy="110.6658" fill="#F1F1F1" rx="118.7795" ry="26.1559" style="stroke:#181818;stroke-width:0.5;"/><text fill="#000000" font-family="sans-serif" font-size="14" lengthAdjust="spacing" textLength="211.0212" x="155.0689" y="116.6998">UC-024: Crear diagrama de flujo</text></g><!--entity dev--><g class="entity" data-qualified-name="dev" data-source-line="5" id="ent0002"><ellipse cx="40.9569" cy="818.6399" fill="#F1F1F1" rx="8" ry="8" style="stroke:#181818;stroke-width:0.5;"/><path d="M40.9569,826.6399 L40.9569,853.6399 M27.9569,834.6399 L53.9569,834.6399 M40.9569,853.6399 L27.9569,868.6399 M40.9569,853.6399 L53.9569,868.6399" fill="none" style="stroke:#181818;stroke-width:0.5;"/><text fill="#000000" font-family="sans-serif" font-size="14" lengthAdjust="spacing" textLength="67.4937" x="7.21" y="885.1058">Developer</text></g><!--entity agent--><g class="entity" data-qualified-name="agent" data-source-line="6" id="ent0003"><ellipse cx="40.9589" cy="244.6399" fill="#F1F1F1" rx="8" ry="8" style="stroke:#181818;stroke-width:0.5;"/><path d="M40.9589,252.6399 L40.9589,279.6399 M27.9589,260.6399 L53.9589,260.6399 M40.9589,279.6399 L27.9589,294.6399 M40.9589,279.6399 L53.9589,294.6399" fill="none" style="stroke:#181818;stroke-width:0.5;"/><text fill="#000000" font-family="sans-serif" font-size="14" lengthAdjust="spacing" textLength="39.1579" x="21.38" y="311.1058">Agent</text></g><!--entity oc--><g class="entity" data-qualified-name="oc" data-source-line="7" id="ent0004"><ellipse cx="40.9579" cy="130.6399" fill="#F1F1F1" rx="8" ry="8" style="stroke:#181818;stroke-width:0.5;"/><path d="M40.9579,138.6399 L40.9579,165.6399 M27.9579,146.6399 L53.9579,146.6399 M40.9579,165.6399 L27.9579,180.6399 M40.9579,165.6399 L53.9579,180.6399" fill="none" style="stroke:#181818;stroke-width:0.5;"/><text fill="#000000" font-family="sans-serif" font-size="14" lengthAdjust="spacing" textLength="69.9157" x="6" y="197.1058">OpenCode</text></g><g class="entity" data-qualified-name="GMN40" data-source-line="54" id="ent0041"><path d="M488.84,306.2599 L488.84,387.084 L757.1522,387.084 L757.1522,316.2599 L747.1522,306.2599 L488.84,306.2599" fill="#FEFFDD" style="stroke:#181818;stroke-width:0.5;"/><path d="M747.1522,306.2599 L747.1522,316.2599 L757.1522,316.2599 L747.1522,306.2599" fill="#FEFFDD" style="stroke:#181818;stroke-width:1;"/><text fill="#000000" font-family="sans-serif" font-size="13" lengthAdjust="spacing" textLength="139.0611" x="494.84" y="325.1569">Comando: bbook build</text><text fill="#000000" font-family="sans-serif" font-size="13" lengthAdjust="spacing" textLength="188.4872" x="494.84" y="342.8629">Crea estructura inicial de docs/</text><text fill="#000000" font-family="sans-serif" font-size="13" lengthAdjust="spacing" textLength="193.2971" x="494.84" y="360.5689">Si existen archivos, los preserva</text><text fill="#000000" font-family="sans-serif" font-size="13" lengthAdjust="spacing" textLength="247.3122" x="494.84" y="378.275">Si faltan, crea vac&#237;os con status=pending</text></g><g class="entity" data-qualified-name="GMN43" data-source-line="61" id="ent0044"><path d="M480.77,422.2599 L480.77,503.084 L765.2153,503.084 L765.2153,432.2599 L755.2153,422.2599 L480.77,422.2599" fill="#FEFFDD" style="stroke:#181818;stroke-width:0.5;"/><path d="M755.2153,422.2599 L755.2153,432.2599 L765.2153,432.2599 L755.2153,422.2599" fill="#FEFFDD" style="stroke:#181818;stroke-width:1;"/><text fill="#000000" font-family="sans-serif" font-size="13" lengthAdjust="spacing" textLength="182.0912" x="486.77" y="441.1569">Comando: bbook build --force</text><text fill="#000000" font-family="sans-serif" font-size="13" lengthAdjust="spacing" textLength="169.9101" x="486.77" y="458.8629">Regenera archivos faltantes</text><text fill="#000000" font-family="sans-serif" font-size="13" lengthAdjust="spacing" textLength="263.4453" x="486.77" y="476.5689">Sobrescribe archivos con contenido default</text><text fill="#000000" font-family="sans-serif" font-size="13" lengthAdjust="spacing" textLength="136.0711" x="486.77" y="494.275">&#218;til para recuperaci&#243;n</text></g><g class="entity" data-qualified-name="GMN46" data-source-line="68" id="ent0047"><path d="M464.42,800.2599 L464.42,823.0799 L361.02,818.2199 L464.42,831.0799 L464.42,881.084 A0,0 0 0 0 464.42,881.084 L781.5733,881.084 A0,0 0 0 0 781.5733,881.084 L781.5733,810.2599 L771.5733,800.2599 L464.42,800.2599 A0,0 0 0 0 464.42,800.2599" fill="#FEFFDD" style="stroke:#181818;stroke-width:0.5;"/><path d="M771.5733,800.2599 L771.5733,810.2599 L781.5733,810.2599 L771.5733,800.2599" fill="#FEFFDD" style="stroke:#181818;stroke-width:0.5;"/><text fill="#000000" font-family="sans-serif" font-size="13" lengthAdjust="spacing" textLength="139.5551" x="470.42" y="819.1569">Comando: bbook open</text><text fill="#000000" font-family="sans-serif" font-size="13" lengthAdjust="spacing" textLength="214.6692" x="470.42" y="836.8629">Inicia servidor HTTP en puerto8080</text><text fill="#000000" font-family="sans-serif" font-size="13" lengthAdjust="spacing" textLength="296.1533" x="470.42" y="854.5689">Watch service detecta cambios en *.md y *.puml</text><text fill="#000000" font-family="sans-serif" font-size="13" lengthAdjust="spacing" textLength="196.1441" x="470.42" y="872.275">WebSocket notifica a navegador</text></g><g class="entity" data-qualified-name="GMN49" data-source-line="75" id="ent0050"><path d="M504.39,916.4099 L504.39,961.6699 L347.91,965.6699 L504.39,969.6699 L504.39,1014.94 A0,0 0 0 0 504.39,1014.94 L741.6062,1014.94 A0,0 0 0 0 741.6062,1014.94 L741.6062,926.4099 L731.6062,916.4099 L504.39,916.4099 A0,0 0 0 0 504.39,916.4099" fill="#FEFFDD" style="stroke:#181818;stroke-width:0.5;"/><path d="M731.6062,916.4099 L731.6062,926.4099 L741.6062,926.4099 L731.6062,916.4099" fill="#FEFFDD" style="stroke:#181818;stroke-width:0.5;"/><text fill="#000000" font-family="sans-serif" font-size="13" lengthAdjust="spacing" textLength="135.0051" x="510.39" y="935.3069">Comando: bbook plan</text><text fill="#000000" font-family="sans-serif" font-size="13" lengthAdjust="spacing" textLength="216.2162" x="510.39" y="953.0129">Muestra tabla con todos los planes:</text><text fill="#000000" font-family="sans-serif" font-size="13" lengthAdjust="spacing" textLength="132.9381" x="510.39" y="970.7189">- Sin revisar (pending)</text><text fill="#000000" font-family="sans-serif" font-size="13" lengthAdjust="spacing" textLength="140.7771" x="510.39" y="988.425">- Aprobados (accepted)</text><text fill="#000000" font-family="sans-serif" font-size="13" lengthAdjust="spacing" textLength="162.7211" x="510.39" y="1006.131">- Rechazados (needs-work)</text></g><g class="entity" data-qualified-name="GMN52" data-source-line="83" id="ent0053"><path d="M445.24,1050.1099 L445.24,1057.5199 L340.23,1049.6199 L445.24,1065.5199 L445.24,1113.2279 A0,0 0 0 0 445.24,1113.2279 L800.7432,1113.2279 A0,0 0 0 0 800.7432,1113.2279 L800.7432,1060.1099 L790.7432,1050.1099 L445.24,1050.1099 A0,0 0 0 0 445.24,1050.1099" fill="#FEFFDD" style="stroke:#181818;stroke-width:0.5;"/><path d="M790.7432,1050.1099 L790.7432,1060.1099 L800.7432,1060.1099 L790.7432,1050.1099" fill="#FEFFDD" style="stroke:#181818;stroke-width:0.5;"/><text fill="#000000" font-family="sans-serif" font-size="13" lengthAdjust="spacing" textLength="249.3012" x="451.24" y="1069.0069">Comando: bbook plan approve &lt;plan-id&gt;</text><text fill="#000000" font-family="sans-serif" font-size="13" lengthAdjust="spacing" textLength="266.4482" x="451.24" y="1086.7129">Solo si documentaci&#243;n previa est&#225; accepted</text><text fill="#000000" font-family="sans-serif" font-size="13" lengthAdjust="spacing" textLength="334.5032" x="451.24" y="1104.4189">Valida que todas las actividades tienen status accepted</text></g><g class="entity" data-qualified-name="GMN55" data-source-line="89" id="ent0056"><path d="M487.36,1148.1099 L487.36,1154.3399 L362.46,1138.6199 L487.36,1162.3399 L487.36,1211.2279 A0,0 0 0 0 487.36,1211.2279 L758.6232,1211.2279 A0,0 0 0 0 758.6232,1211.2279 L758.6232,1158.1099 L748.6232,1148.1099 L487.36,1148.1099 A0,0 0 0 0 487.36,1148.1099" fill="#FEFFDD" style="stroke:#181818;stroke-width:0.5;"/><path d="M748.6232,1148.1099 L748.6232,1158.1099 L758.6232,1158.1099 L748.6232,1148.1099" fill="#FEFFDD" style="stroke:#181818;stroke-width:0.5;"/><text fill="#000000" font-family="sans-serif" font-size="13" lengthAdjust="spacing" textLength="211.6532" x="493.36" y="1167.0069">Comando: bbook plan &lt;activity-id&gt;</text><text fill="#000000" font-family="sans-serif" font-size="13" lengthAdjust="spacing" textLength="250.2632" x="493.36" y="1184.7129">Muestra progreso de actividad espec&#237;fica</text><text fill="#000000" font-family="sans-serif" font-size="13" lengthAdjust="spacing" textLength="142.4021" x="493.36" y="1202.4189">Lista tareas y su estado</text></g><!--link dev to uc001--><g class="link" data-entity-1="ent0002" data-entity-2="ent0006" data-link-type="dependency" data-source-line="34" id="lnk24"><path d="M42.08,809.6999 C44.47,756.0499 56.87,661.1999 111.92,606.6699 C126.85,591.8799 140.8907,584.0592 161.1007,577.8992" fill="none" id="dev-to-uc001" style="stroke:#181818;stroke-width:1;"/><polygon fill="#181818" points="166.84,576.1499,157.0648,574.9477,162.0572,577.6077,159.3972,582.6001,166.84,576.1499" style="stroke:#181818;stroke-width:1;"/></g><!--link dev to uc002--><g class="link" data-entity-1="ent0002" data-entity-2="ent0007" data-link-type="dependency" data-source-line="35" id="lnk25"><path d="M68.8,809.7899 C80.5,795.0299 95.34,779.3099 111.92,768.6699 C130,757.0599 145.5677,750.2295 166.2977,743.9495" fill="none" id="dev-to-uc002" style="stroke:#181818;stroke-width:1;"/><polygon fill="#181818" points="172.04,742.2099,162.2668,740.9911,167.2548,743.6596,164.5863,748.6475,172.04,742.2099" style="stroke:#181818;stroke-width:1;"/></g><!--link dev to uc003--><g class="link" data-entity-1="ent0002" data-entity-2="ent0008" data-link-type="dependency" data-source-line="36" id="lnk26"><path d="M75.01,843.5999 C102.12,838.6099 135.7887,832.4239 171.3387,825.8939" fill="none" id="dev-to-uc003" style="stroke:#181818;stroke-width:1;"/><polygon fill="#181818" points="177.24,824.8099,167.6654,822.5017,172.3223,825.7132,169.1107,830.37,177.24,824.8099" style="stroke:#181818;stroke-width:1;"/></g><!--link dev to uc004--><g class="link" data-entity-1="ent0002" data-entity-2="ent0009" data-link-type="dependency" data-source-line="37" id="lnk27"><path d="M75.01,855.7499 C104.86,861.2299 143.899,868.4046 181.959,875.4046" fill="none" id="dev-to-uc004" style="stroke:#181818;stroke-width:1;"/><polygon fill="#181818" points="187.86,876.4899,179.732,870.9279,182.9425,875.5855,178.2849,878.7959,187.86,876.4899" style="stroke:#181818;stroke-width:1;"/></g><!--link dev to uc005--><g class="link" data-entity-1="ent0002" data-entity-2="ent0010" data-link-type="dependency" data-source-line="38" id="lnk28"><path d="M69.89,889.5299 C81.45,903.4199 95.9,917.9499 111.92,927.6699 C133.98,941.0699 154.8025,948.4258 179.3825,954.0758" fill="none" id="dev-to-uc005" style="stroke:#181818;stroke-width:1;"/><polygon fill="#181818" points="185.23,955.4199,177.3548,949.5054,180.3571,954.2998,175.5627,957.3021,185.23,955.4199" style="stroke:#181818;stroke-width:1;"/></g><!--link dev to uc006--><g class="link" data-entity-1="ent0002" data-entity-2="ent0011" data-link-type="dependency" data-source-line="39" id="lnk29"><path d="M50,889.4299 C59.11,924.2999 77.42,973.7999 111.92,1002.6699 C130.59,1018.2999 149.0679,1026.2426 172.5679,1031.7426" fill="none" id="dev-to-uc006" style="stroke:#181818;stroke-width:1;"/><polygon fill="#181818" points="178.41,1033.1099,170.5583,1027.1642,173.5416,1031.9705,168.7353,1034.9537,178.41,1033.1099" style="stroke:#181818;stroke-width:1;"/></g><!--link dev to uc007--><g class="link" data-entity-1="ent0002" data-entity-2="ent0012" data-link-type="dependency" data-source-line="40" id="lnk30"><path d="M48.19,809.9899 C56.28,771.8699 74.11,715.3599 111.92,682.6699 C129.74,667.2599 147.181,659.392 169.971,653.832" fill="none" id="dev-to-uc007" style="stroke:#181818;stroke-width:1;"/><polygon fill="#181818" points="175.8,652.4099,166.1084,650.657,170.9425,653.595,168.0045,658.4291,175.8,652.4099" style="stroke:#181818;stroke-width:1;"/></g><!--link dev to uc008--><g class="link" data-entity-1="ent0002" data-entity-2="ent0013" data-link-type="dependency" data-source-line="41" id="lnk31"><path d="M43.1,889.4199 C46.72,940.2299 60.59,1027.6999 111.92,1078.6699 C124.73,1091.3899 135.4376,1098.3484 152.5276,1104.8084" fill="none" id="dev-to-uc008" style="stroke:#181818;stroke-width:1;"/><polygon fill="#181818" points="158.14,1106.9299,151.1357,1100.0061,153.463,1105.162,148.307,1107.4893,158.14,1106.9299" style="stroke:#181818;stroke-width:1;"/></g><!--link agent to uc020--><g class="link" data-entity-1="ent0003" data-entity-2="ent0019" data-link-type="dependency" data-source-line="43" id="lnk32"><path d="M55.57,315.4399 C66.72,342.3499 85.08,376.6899 111.92,397.6699 C127.98,410.2299 141.9064,417.2298 161.5564,423.4098" fill="none" id="agent-to-uc020" style="stroke:#181818;stroke-width:1;"/><polygon fill="#181818" points="167.28,425.2099,159.8947,418.694,162.5103,423.7098,157.4945,426.3255,167.28,425.2099" style="stroke:#181818;stroke-width:1;"/></g><!--link agent to uc021--><g class="link" data-entity-1="ent0003" data-entity-2="ent0020" data-link-type="dependency" data-source-line="44" id="lnk33"><path d="M60.84,288.5999 C74.52,297.4999 93.74,309.0399 111.92,316.6699 C134.94,326.3299 155.1556,332.7703 178.8756,338.9803" fill="none" id="agent-to-uc021" style="stroke:#181818;stroke-width:1;"/><polygon fill="#181818" points="184.68,340.4999,176.9865,334.3509,179.843,339.2336,174.9604,342.0901,184.68,340.4999" style="stroke:#181818;stroke-width:1;"/></g><!--link agent to uc022--><g class="link" data-entity-1="ent0003" data-entity-2="ent0021" data-link-type="dependency" data-source-line="45" id="lnk34"><path d="M60.89,275.6699 C82.5,275.6699 113.58,275.6699 149.89,275.6699" fill="none" id="agent-to-uc022" style="stroke:#181818;stroke-width:1;"/><polygon fill="#181818" points="155.89,275.6699,146.89,271.6699,150.89,275.6699,146.89,279.6699,155.89,275.6699" style="stroke:#181818;stroke-width:1;"/></g><!--link agent to uc023--><g class="link" data-entity-1="ent0003" data-entity-2="ent0022" data-link-type="dependency" data-source-line="46" id="lnk35"><path d="M60.84,262.7399 C74.52,253.8399 93.74,242.2999 111.92,234.6699 C134.94,225.0099 155.155,218.5672 178.875,212.3672" fill="none" id="agent-to-uc023" style="stroke:#181818;stroke-width:1;"/><polygon fill="#181818" points="184.68,210.8499,174.961,209.2559,179.8425,212.1143,176.9841,216.9959,184.68,210.8499" style="stroke:#181818;stroke-width:1;"/></g><!--link agent to uc024--><g class="link" data-entity-1="ent0003" data-entity-2="ent0023" data-link-type="dependency" data-source-line="47" id="lnk36"><path d="M61,244.1199 C65.91,235.8699 71.15,226.9599 75.92,218.6699 C92.37,190.0399 86.12,174.2899 111.92,153.6699 C127.25,141.4199 140.2561,134.5518 159.1261,128.2818" fill="none" id="agent-to-uc024" style="stroke:#181818;stroke-width:1;"/><polygon fill="#181818" points="164.82,126.3899,155.0178,125.4319,160.0751,127.9665,157.5404,133.0237,164.82,126.3899" style="stroke:#181818;stroke-width:1;"/></g><!--reverse link uc002 to uc010--><g class="link" data-entity-1="ent0007" data-entity-2="ent0015" data-link-type="dependency" data-source-line="49" id="lnk37"><path d="M379.6341,730.9154 C426.1341,732.9754 473.73,735.0899 519.2,737.1099" fill="none" id="uc002-backto-uc010" style="stroke:#181818;stroke-width:1;"/><polygon fill="#181818" points="373.64,730.6499,382.4542,735.0443,378.6351,730.8712,382.8082,727.0521,373.64,730.6499" style="stroke:#181818;stroke-width:1;"/></g><!--reverse link uc002 to uc011--><g class="link" data-entity-1="ent0007" data-entity-2="ent0016" data-link-type="dependency" data-source-line="50" id="lnk38"><path d="M356.1119,708.3592 C414.1619,697.7292 483.57,685.0199 540.19,674.6499" fill="none" id="uc002-backto-uc011" style="stroke:#181818;stroke-width:1;"/><polygon fill="#181818" points="350.21,709.4399,359.7833,711.7534,355.1282,708.5393,358.3423,703.8842,350.21,709.4399" style="stroke:#181818;stroke-width:1;"/></g><!--reverse link uc002 to uc012--><g class="link" data-entity-1="ent0007" data-entity-2="ent0017" data-link-type="dependency" data-source-line="51" id="lnk39"><path d="M359.6827,708.7954 C379.3327,702.4854 393.25,695.3699 409.24,682.6699 C434.81,662.3799 419.08,638.1699 445.24,618.6699 C469.21,600.8099 499.73,590.6999 528.64,585.0399" fill="none" id="uc002-backto-uc012" style="stroke:#181818;stroke-width:1;"/><polygon fill="#181818" points="353.97,710.6299,363.762,711.6867,358.7306,709.1012,361.3161,704.0698,353.97,710.6299" style="stroke:#181818;stroke-width:1;"/></g><!--link uc001 to GMN40--><g class="link" data-entity-1="ent0006" data-entity-2="ent0041" data-link-type="association" data-source-line="54" id="lnk42"><path d="M313.66,545.1899 C344.62,530.8999 382.86,509.2499 409.24,480.6699 C434.6,453.2099 417.21,429.3899 445.24,404.6699 C457.96,393.4599 472.9,384.3999 488.6,377.0899" fill="none" id="uc001-GMN40" style="stroke:#181818;stroke-width:1;stroke-dasharray:7,7;"/></g><!--link uc002 to GMN43--><g class="link" data-entity-1="ent0007" data-entity-2="ent0044" data-link-type="association" data-source-line="61" id="lnk45"><path d="M359.7,712.5299 C378.12,706.0799 395.8,696.5999 409.24,682.6699 C454.47,635.8299 403.21,590.3899 445.24,540.6699 C457.91,525.6899 474.02,513.4799 491.33,503.5599" fill="none" id="uc002-GMN43" style="stroke:#181818;stroke-width:1;stroke-dasharray:7,7;"/></g><?plantuml-src VLNBRjj65DtpAowyIegm5IdP5WGtGA8KQ80K3VBg-d9u9KzDSTYP8HEdw8zarm_8gf-W7-iPag9Uj0qOr9qvXpnp7sSAMNdoXgnUtthAjHNbjIcZo6jV22tP6KUvq4TdAAQNjIvoNQxffJ5tKSJA6qklf972L6A90xJfbr-ifVHXYSEFVl7YzqhAfSdb8kmO5KKLgpiWQFdcDVqT4Vvg9ugTqCN7PJoP90jwNMgbkT1VsL9bpJqacfPVA-oFSD85lHDbIkTjhIr9U2fVMnvOwGXhklkI9IUsqJdqVfPiu4n7EBC5VSB1Syrhonjs0tWs0hvSq1ljV3X5mQNimPSZuAi5lS1XinuzOAz6iDVjUM_vwoduUWGyxoJZtMihg2gAYzfed9VpWJYF_jcN1d2zqef3OupLA9ai1inOjfF922Svv2YpuJ8tGqQIaQecwSbN-92G7Wf-PLIzGTCzg3Y5ub-SiZfhswCIrRvMwUr_G_BI4TKfL2-jyBxYj4m6meZeD3qdf0DXf0lJwJbXEX16MZ2TdH5GqLLH_pdCI3eBoS5aKXm_xuVcC4gFekbHD3kABe-YgwFe-YYQmnrQ0-WNaCtZE3c9qvDuUXBFegZLUXF7VK-r8UtYv2HEewWqNdfZCwl1B9PThoqeos1Yb0LB2yl8uK7lakvC9oGpDyhz1CXxJV850ombiLMtkZ7k6HNmnmg31CVW3hFYmdFvZ5HuOyDg-nqGk16XPNtjVeO31W-DyA0WSKne-e1Gf6Dbh19ilnFaHw1qfwN_i1SNT9WCeaA7onuGHE0V1u2vuMGhhWiFyFQRrmLLZ9V1_sjOUJSAZqgSdal49L1YjNFHlOd--k73MqBIgbgiD_F9F4pM7-pLROTHIB5uk3gJuasceHJe7txSv7IFHrLlYa2GxBrHT-A3edPSYQdaHjOm0lkerCjpgS4ciVfR7KhEv3ahkCsFDx2LhggjII-0Yb7M4gbfjCESFUaB-BJTwKmwS9wmKb9voRkDtf7RdL8aT_5dO--UFYhqQbmeSOMlD48t8Ofr_hojS678wT2TdTcr9GkzsEYsaxV_qauHu9zmWUPCVzKIZWXZACBLl3D-SUGrscdNf7lcOtBd3yYzwTxhxtkfkooFtZcT_sw_Xue2szwGg0U6nw7yhkwjVY_aVm00?></g></svg>